<svg width="215" height="103" viewBox="0 0 215 103" fill="none" xmlns="http://www.w3.org/2000/svg">
<mask id="path-1-inside-1_306_2" fill="white">
<path d="M154.047 102.375C145.21 102.375 138.047 95.2116 138.047 86.375V16C138.047 7.16344 145.21 0 154.047 0H168.281C177.328 0 185.344 2.01562 192.328 6.04688C199.359 10.0781 204.797 15.7969 208.641 23.2031C212.484 30.6094 214.406 39.0938 214.406 48.6562V53.7891C214.406 63.4922 212.461 72.0234 208.57 79.3828C204.727 86.7422 199.219 92.4141 192.047 96.3984C184.922 100.383 176.742 102.375 167.508 102.375H154.047ZM168.281 14.3438C161.408 14.3438 155.836 19.9157 155.836 26.7891V76.5703C155.836 82.9777 161.03 88.1719 167.438 88.1719V88.1719C176.766 88.1719 183.914 85.2656 188.883 79.4531C193.898 73.5938 196.453 65.2031 196.547 54.2812V48.5859C196.547 37.4766 194.133 28.9922 189.305 23.1328C184.477 17.2734 177.469 14.3438 168.281 14.3438V14.3438Z"/>
</mask>
<path d="M192.328 6.04688L167.334 49.3513L167.396 49.3874L167.459 49.4234L192.328 6.04688ZM208.57 79.3828L164.367 56.0143L164.309 56.1246L164.251 56.2352L208.57 79.3828ZM192.047 96.3984L167.765 52.6906L167.704 52.7244L167.643 52.7585L192.047 96.3984ZM188.883 79.4531L150.899 46.9386L150.888 46.9513L150.877 46.9641L188.883 79.4531ZM196.547 54.2812L246.545 54.7104L246.547 54.4958V54.2812H196.547ZM188.047 86.375V16H88.0469V86.375H188.047ZM154.047 50H168.281V-50H154.047V50ZM168.281 50C169.078 50 169.22 50.0864 168.885 50.0021C168.725 49.9619 168.489 49.8909 168.202 49.7751C167.914 49.6589 167.619 49.5159 167.334 49.3513L217.323 -37.2576C201.846 -46.1906 185.011 -50 168.281 -50V50ZM167.459 49.4234C166.889 49.0964 166.152 48.5569 165.445 47.8125C164.745 47.0762 164.38 46.4634 164.261 46.2354L253.02 0.170871C244.896 -15.4819 232.804 -28.3817 217.197 -37.3296L167.459 49.4234ZM164.261 46.2354C164.133 45.9886 164.143 45.9138 164.2 46.1672C164.264 46.447 164.406 47.2285 164.406 48.6562H264.406C264.406 32.2546 261.063 15.6696 253.02 0.170871L164.261 46.2354ZM164.406 48.6562V53.7891H264.406V48.6562H164.406ZM164.406 53.7891C164.406 55.3002 164.255 56.1006 164.199 56.3491C164.149 56.5673 164.166 56.3953 164.367 56.0143L252.773 102.751C261.057 87.0832 264.406 70.285 264.406 53.7891H164.406ZM164.251 56.2352C164.454 55.8476 164.909 55.1242 165.686 54.3235C166.467 53.5193 167.237 52.9838 167.765 52.6906L216.329 140.106C232.154 131.314 244.578 118.444 252.889 102.53L164.251 56.2352ZM167.643 52.7585C167.877 52.6278 168.107 52.5206 168.318 52.4384C168.527 52.3567 168.674 52.3162 168.737 52.3009C168.797 52.2862 168.743 52.3037 168.553 52.3255C168.36 52.3475 168.018 52.375 167.508 52.375V152.375C184.147 152.375 200.933 148.716 216.451 140.038L167.643 52.7585ZM167.508 52.375H154.047V152.375H167.508V52.375ZM105.836 26.7891V76.5703H205.836V26.7891H105.836ZM167.438 138.172C187.873 138.172 210.354 131.285 226.889 111.942L150.877 46.9641C153.636 43.7365 157.203 41.2027 160.964 39.6738C164.478 38.2451 166.96 38.1719 167.438 38.1719V138.172ZM226.867 111.968C242.185 94.0733 246.392 72.578 246.545 54.7104L146.549 53.8521C146.533 55.6432 146.318 55.5516 146.728 54.2022C147.185 52.7014 148.345 49.9216 150.899 46.9386L226.867 111.968ZM246.547 54.2812V48.5859H146.547V54.2812H246.547ZM246.547 48.5859C246.547 31.093 242.847 9.48535 227.892 -8.66337L150.717 54.929C148.097 51.7491 147.021 48.8968 146.645 47.574C146.308 46.3881 146.547 46.5189 146.547 48.5859H246.547ZM227.892 -8.66337C211.566 -28.4771 188.945 -35.6562 168.281 -35.6562V64.3438C167.609 64.3438 164.884 64.2364 161.142 62.672C157.145 61.0011 153.478 58.2792 150.717 54.929L227.892 -8.66337ZM105.836 76.5703C105.836 110.592 133.416 138.172 167.438 138.172V38.1719C188.644 38.1719 205.836 55.3634 205.836 76.5703H105.836ZM188.047 16C188.047 34.7777 172.825 50 154.047 50V-50C117.596 -50 88.0469 -20.4508 88.0469 16H188.047ZM205.836 26.7891C205.836 47.5299 189.022 64.3438 168.281 64.3438V-35.6562C133.794 -35.6562 105.836 -7.69853 105.836 26.7891H205.836ZM88.0469 86.375C88.0469 122.826 117.596 152.375 154.047 152.375V52.375C172.825 52.375 188.047 67.5973 188.047 86.375H88.0469Z" fill="#27C498" mask="url(#path-1-inside-1_306_2)"/>
<path d="M13.6293 0.625C19.3047 0.625 24.3861 4.14198 26.3851 9.45369L52.5938 79.0938L78.5151 10.0526C80.6443 4.38141 86.0671 0.625 92.1248 0.625V0.625C99.2615 0.625 105.047 6.4104 105.047 13.5471V93.8548C105.047 98.9056 100.952 103 95.9017 103V103C91.1667 103 87.3281 99.1615 87.3281 94.4264V69.25L89.0859 24.1094L61.1282 97.0597C59.7569 100.638 56.3217 103 52.4899 103V103C48.6565 103 45.2202 100.636 43.8501 97.0555L15.9609 24.1797L17.7188 69.25V94.1406C17.7188 99.0335 13.7523 103 8.85938 103V103C3.96648 103 0 99.0335 0 94.1406V14.2543C0 6.72704 6.10204 0.625 13.6293 0.625V0.625Z" fill="#27C498"/>
</svg>
